<?xml version="1.0" encoding="UTF-8"?>
<svg id="_Слой_1" data-name="Слой_1" xmlns="http://www.w3.org/2000/svg" version="1.1" viewBox="0 0 911.5 677">
  <!-- Generator: Adobe Illustrator 29.3.0, SVG Export Plug-In . SVG Version: 2.1.0 Build 146)  -->
  <defs>
    <style>
      .st0 {
        fill: none;
        stroke: #d9d9d9;
        stroke-linejoin: round;
        stroke-width: 1.4px;
      }
    </style>
  </defs>
  <path class="st0" d="M1,624l138.6-85.7c38.4-23.7,57.1-69.5,46.3-113.4l-7.3-29.4c-11.7-47.6,11.3-96.9,55.4-118.4l16.5-8.1c22-10.7,39.5-28.9,49.4-51.2l13.9-31.3c19.5-43.8,66.4-68.6,113.5-60.1l131.2,23.7c45.1,8.2,90.2-14.2,111.1-54.9l13.1-25.6c21.2-41.3,67.1-63.6,112.6-54.6l68.1,13.4"/>
  <path class="st0" d="M25,650l138.6-85.7c38.4-23.7,57.1-69.5,46.3-113.4l-7.3-29.4c-11.7-47.6,11.3-96.9,55.4-118.4l16.5-8.1c22-10.7,39.5-28.9,49.4-51.2l13.9-31.3c19.5-43.8,66.4-68.6,113.5-60.1l131.2,23.7c45.1,8.2,90.2-14.2,111.1-54.9l13.1-25.6c21.2-41.3,67.1-63.6,112.6-54.6l68.1,13.4"/>
  <path class="st0" d="M49,676l138.6-85.7c38.4-23.7,57.1-69.5,46.3-113.4l-7.3-29.4c-11.7-47.6,11.3-96.9,55.4-118.4l16.5-8.1c22-10.7,39.5-28.9,49.4-51.2l13.9-31.3c19.5-43.8,66.4-68.6,113.5-60.1l131.2,23.7c45.1,8.2,90.2-14.2,111.1-54.9l13.1-25.6c21.2-41.3,67.1-63.6,112.6-54.6l68.1,13.4"/>
</svg>