<svg width="479" height="318" viewBox="0 0 479 318" fill="none" xmlns="http://www.w3.org/2000/svg">
<path d="M-195.243 29.4986L-96.6298 14.645C-54.1688 8.24927 -12.1426 28.6071 9.15997 65.8903L33.6629 108.775C54.718 145.625 96.0526 165.984 138.1 160.215L329.465 133.957C373.769 127.878 416.998 150.802 436.824 190.886L473.758 265.564" stroke="#D9D9D9" stroke-width="1.4" stroke-linejoin="round"/>
<path d="M-223.608 54.9928L-124.995 40.1391C-82.5335 33.7434 -40.5074 54.1012 -19.2048 91.3845L5.29812 134.269C26.3533 171.119 67.6879 191.478 109.735 185.709L301.1 159.452C345.404 153.373 388.634 176.296 408.459 216.38L445.393 291.058" stroke="#D9D9D9" stroke-width="1.4" stroke-linejoin="round"/>
<path d="M-251.973 80.4872L-153.36 65.6335C-110.899 59.2378 -68.8725 79.5956 -47.5699 116.879L-23.067 159.763C-2.01183 196.613 39.3228 216.972 81.37 211.203L272.735 184.946C317.039 178.867 360.269 201.79 380.094 241.875L417.028 316.553" stroke="#D9D9D9" stroke-width="1.4" stroke-linejoin="round"/>
</svg>
