<?xml version="1.0" encoding="utf-8"?><svg xmlns="http://www.w3.org/2000/svg" xmlns:xlink="http://www.w3.org/1999/xlink"><symbol viewBox="0 0 20 23" id="button-arrow" xmlns="http://www.w3.org/2000/svg"><path d="M17.3596 11.071C17.6841 11.265 17.6841 11.7352 17.3596 11.9293L2.25661 20.9604C1.92333 21.1597 1.5 20.9196 1.5 20.5313L1.5 2.46899C1.5 2.08067 1.92333 1.84057 2.25661 2.03986L17.3596 11.071Z" stroke-width="3" stroke-miterlimit="1.55572"/></symbol><symbol viewBox="0 0 24 24" id="instagram" xmlns="http://www.w3.org/2000/svg"><path fill-rule="evenodd" clip-rule="evenodd" d="M12 18C15.3137 18 18 15.3137 18 12C18 8.68629 15.3137 6 12 6C8.68629 6 6 8.68629 6 12C6 15.3137 8.68629 18 12 18ZM12 16C14.2091 16 16 14.2091 16 12C16 9.79086 14.2091 8 12 8C9.79086 8 8 9.79086 8 12C8 14.2091 9.79086 16 12 16Z"/><path d="M18 5C17.4477 5 17 5.44772 17 6C17 6.55228 17.4477 7 18 7C18.5523 7 19 6.55228 19 6C19 5.44772 18.5523 5 18 5Z"/><path fill-rule="evenodd" clip-rule="evenodd" d="M1.65396 4.27606C1 5.55953 1 7.23969 1 10.6V13.4C1 16.7603 1 18.4405 1.65396 19.7239C2.2292 20.8529 3.14708 21.7708 4.27606 22.346C5.55953 23 7.23969 23 10.6 23H13.4C16.7603 23 18.4405 23 19.7239 22.346C20.8529 21.7708 21.7708 20.8529 22.346 19.7239C23 18.4405 23 16.7603 23 13.4V10.6C23 7.23969 23 5.55953 22.346 4.27606C21.7708 3.14708 20.8529 2.2292 19.7239 1.65396C18.4405 1 16.7603 1 13.4 1H10.6C7.23969 1 5.55953 1 4.27606 1.65396C3.14708 2.2292 2.2292 3.14708 1.65396 4.27606ZM13.4 3H10.6C8.88684 3 7.72225 3.00156 6.82208 3.0751C5.94524 3.14674 5.49684 3.27659 5.18404 3.43597C4.43139 3.81947 3.81947 4.43139 3.43597 5.18404C3.27659 5.49684 3.14674 5.94524 3.0751 6.82208C3.00156 7.72225 3 8.88684 3 10.6V13.4C3 15.1132 3.00156 16.2777 3.0751 17.1779C3.14674 18.0548 3.27659 18.5032 3.43597 18.816C3.81947 19.5686 4.43139 20.1805 5.18404 20.564C5.49684 20.7234 5.94524 20.8533 6.82208 20.9249C7.72225 20.9984 8.88684 21 10.6 21H13.4C15.1132 21 16.2777 20.9984 17.1779 20.9249C18.0548 20.8533 18.5032 20.7234 18.816 20.564C19.5686 20.1805 20.1805 19.5686 20.564 18.816C20.7234 18.5032 20.8533 18.0548 20.9249 17.1779C20.9984 16.2777 21 15.1132 21 13.4V10.6C21 8.88684 20.9984 7.72225 20.9249 6.82208C20.8533 5.94524 20.7234 5.49684 20.564 5.18404C20.1805 4.43139 19.5686 3.81947 18.816 3.43597C18.5032 3.27659 18.0548 3.14674 17.1779 3.0751C16.2777 3.00156 15.1132 3 13.4 3Z"/></symbol><symbol viewBox="0 0 24 24" id="phone-call" xmlns="http://www.w3.org/2000/svg"><path d="M14.05 6C15.0268 6.19057 15.9244 6.66826 16.6281 7.37194C17.3318 8.07561 17.8095 8.97326 18 9.95M14.05 2C16.0793 2.22544 17.9716 3.13417 19.4163 4.57701C20.8609 6.01984 21.7721 7.91101 22 9.94M18.5 21C9.93959 21 3 14.0604 3 5.5C3 5.11378 3.01413 4.73086 3.04189 4.35173C3.07375 3.91662 3.08968 3.69907 3.2037 3.50103C3.29814 3.33701 3.4655 3.18146 3.63598 3.09925C3.84181 3 4.08188 3 4.56201 3H7.37932C7.78308 3 7.98496 3 8.15802 3.06645C8.31089 3.12515 8.44701 3.22049 8.55442 3.3441C8.67601 3.48403 8.745 3.67376 8.88299 4.05321L10.0491 7.26005C10.2096 7.70153 10.2899 7.92227 10.2763 8.1317C10.2643 8.31637 10.2012 8.49408 10.0942 8.64506C9.97286 8.81628 9.77145 8.93713 9.36863 9.17882L8 10C9.2019 12.6489 11.3501 14.7999 14 16L14.8212 14.6314C15.0629 14.2285 15.1837 14.0271 15.3549 13.9058C15.5059 13.7988 15.6836 13.7357 15.8683 13.7237C16.0777 13.7101 16.2985 13.7904 16.74 13.9509L19.9468 15.117C20.3262 15.255 20.516 15.324 20.6559 15.4456C20.7795 15.553 20.8749 15.6891 20.9335 15.842C21 16.015 21 16.2169 21 16.6207V19.438C21 19.9181 21 20.1582 20.9007 20.364C20.8185 20.5345 20.663 20.7019 20.499 20.7963C20.3009 20.9103 20.0834 20.9262 19.6483 20.9581C19.2691 20.9859 18.8862 21 18.5 21Z" stroke-width="2" stroke-linecap="round" stroke-linejoin="round"/></symbol><symbol viewBox="0 0 37 12" id="slider-btn-arrow" xmlns="http://www.w3.org/2000/svg"><path d="M1 5.25C0.585786 5.25 0.25 5.58579 0.25 6C0.25 6.41421 0.585786 6.75 1 6.75V5.25ZM36.5303 6.53033C36.8232 6.23744 36.8232 5.76256 36.5303 5.46967L31.7574 0.696699C31.4645 0.403806 30.9896 0.403806 30.6967 0.696699C30.4038 0.989593 30.4038 1.46447 30.6967 1.75736L34.9393 6L30.6967 10.2426C30.4038 10.5355 30.4038 11.0104 30.6967 11.3033C30.9896 11.5962 31.4645 11.5962 31.7574 11.3033L36.5303 6.53033ZM1 6.75H36V5.25H1V6.75Z"/><defs><linearGradient id="dpaint0_linear_24_90" x1="36" y1="6.65407" x2="29.2075" y2="18.2758" gradientUnits="userSpaceOnUse"><stop stop-color="#237249"/><stop offset="1" stop-color="#35C66B"/></linearGradient></defs></symbol><symbol viewBox="0 0 134 134" id="star-label-13" xmlns="http://www.w3.org/2000/svg"><path d="M6.73955 49.4094C2.15386 43.6074 5.79493 35.0296 13.154 34.2978C18.6129 33.755 22.4357 28.6536 21.4238 23.262C20.0597 15.9935 27.27 10.0903 34.1262 12.8623C39.2121 14.9185 44.9677 12.178 46.5773 6.93366C48.7473 -0.136202 57.8751 -2.01242 62.6577 3.62833C66.2055 7.81256 72.5754 8.0607 76.4378 4.16512C81.6448 -1.08648 90.5989 1.49409 92.2124 8.71133C93.4092 14.065 98.9342 17.245 104.165 15.5906C111.216 13.3603 117.945 19.8065 116.02 26.9468C114.591 32.2435 118.006 37.6268 123.406 38.5926C130.686 39.8946 133.648 48.7296 128.625 54.1573C124.899 58.1835 125.421 64.5369 129.753 67.9016C135.594 72.4376 134.112 81.6375 127.142 84.1092C121.971 85.9426 119.481 91.8106 121.753 96.8034C124.817 103.534 119.229 110.991 111.909 109.941C106.479 109.161 101.546 113.2 101.238 118.677C100.823 126.061 92.4098 130.067 86.4162 125.734C81.9703 122.521 75.726 123.804 72.9081 128.511C69.1092 134.856 59.7977 134.493 56.5039 127.872C54.0607 122.96 47.9352 121.195 43.2527 124.053C36.9403 127.906 28.8639 123.258 29.0245 115.864C29.1437 110.379 24.5403 105.97 19.0659 106.324C11.686 106.802 6.69497 98.9329 10.2732 92.4608C12.9275 87.6599 10.9007 81.6159 5.88862 79.3859C-0.86813 76.3795 -1.63043 67.0922 4.54567 63.0243C9.12702 60.0068 10.1412 53.7132 6.73955 49.4094Z"/><defs><linearGradient id="epaint0_linear_14_28" x1="119.132" y1="4.41892" x2="78.5841" y2="114.618" gradientUnits="userSpaceOnUse"><stop stop-color="#237249"/><stop offset="1" stop-color="#35C66B"/></linearGradient></defs></symbol><symbol viewBox="0 0 168 168" id="star-label-hero" xmlns="http://www.w3.org/2000/svg"><path d="M128.37 18.006C135.304 16.0297 142.041 21.6825 141.298 28.854V28.854C140.724 34.4044 144.721 39.3844 150.264 40.0248V40.0248C157.426 40.8523 161.487 48.6528 158.057 54.9944V54.9944C155.402 59.9024 157.189 66.0329 162.065 68.7459V68.7459C168.365 72.2512 169.132 81.0119 163.536 85.558V85.558C159.205 89.0765 158.51 95.4242 161.976 99.7967V99.7967C166.456 105.446 163.811 113.833 156.901 115.892V115.892C151.554 117.485 148.482 123.084 150.012 128.45V128.45C151.988 135.384 146.335 142.12 139.164 141.378V141.378C133.614 140.804 128.634 144.8 127.993 150.344V150.344C127.166 157.506 119.365 161.566 113.024 158.136V158.136C108.116 155.481 101.985 157.268 99.272 162.144V162.144C95.7667 168.445 87.006 169.211 82.4599 163.615V163.615C78.9414 159.284 72.5938 158.589 68.2213 162.056V162.056C62.5717 166.535 54.1846 163.891 52.126 156.981V156.981C50.5327 151.633 44.9343 148.562 39.5679 150.092V150.092C32.6343 152.068 25.8976 146.415 26.6399 139.244V139.244C27.2144 133.693 23.2175 128.713 17.6743 128.073V128.073C10.5121 127.245 6.45146 119.445 9.88167 113.103V113.103C12.5365 108.195 10.7496 102.065 5.87347 99.3517V99.3517C-0.426843 95.8464 -1.1933 87.0857 4.4026 82.5395V82.5395C8.73358 79.021 9.42876 72.6734 5.96198 68.3009V68.3009C1.48268 62.6514 4.12714 54.2642 11.0368 52.2056V52.2056C16.3846 50.6123 19.456 45.0139 17.9264 39.6476V39.6476C15.95 32.714 21.6028 25.9772 28.7743 26.7195V26.7195C34.3247 27.2941 39.3047 23.2972 39.9452 17.754V17.754C40.7727 10.5918 48.5732 6.53111 54.9147 9.96132V9.96132C59.8228 12.6162 65.9533 10.8293 68.6662 5.95312V5.95312C72.1716 -0.347192 80.9323 -1.11365 85.4784 4.48225V4.48225C88.9969 8.81323 95.3445 9.50841 99.717 6.04163V6.04163C105.367 1.56234 113.754 4.20679 115.812 11.1165V11.1165C117.406 16.4642 123.004 19.5356 128.37 18.006V18.006Z"/><defs><linearGradient id="fpaint0_linear_8_11" x1="135.996" y1="164.55" x2="24.9079" y2="80.2258" gradientUnits="userSpaceOnUse"><stop stop-color="#237249"/><stop offset="1" stop-color="#35C66B"/></linearGradient></defs></symbol></svg>