<?xml version="1.0" encoding="utf-8"?><svg viewBox="0 0 800 800" xmlns="http://www.w3.org/2000/svg" xmlns:xlink="http://www.w3.org/1999/xlink"><style>:root>svg{display:none}:root>svg:target{display:block}</style><svg fill="none" viewBox="0 0 20 23" id="button-arrow" xmlns="http://www.w3.org/2000/svg"><path d="M17.36 11.071a.5.5 0 0 1 0 .858L2.257 20.96a.5.5 0 0 1-.757-.429V2.47a.5.5 0 0 1 .757-.43l15.103 9.032Z" stroke="#fff" stroke-width="3" stroke-miterlimit="1.556"/></svg><svg viewBox="0 0 24 24" fill="none" id="instagram" xmlns="http://www.w3.org/2000/svg"><path fill-rule="evenodd" clip-rule="evenodd" d="M12 18a6 6 0 1 0 0-12 6 6 0 0 0 0 12Zm0-2a4 4 0 1 0 0-8 4 4 0 0 0 0 8Z" fill="#0F0F0F"/><path d="M18 5a1 1 0 1 0 0 2 1 1 0 0 0 0-2Z" fill="#0F0F0F"/><path fill-rule="evenodd" clip-rule="evenodd" d="M1.654 4.276C1 5.56 1 7.24 1 10.6v2.8c0 3.36 0 5.04.654 6.324a6 6 0 0 0 2.622 2.622C5.56 23 7.24 23 10.6 23h2.8c3.36 0 5.04 0 6.324-.654a6 6 0 0 0 2.622-2.622C23 18.44 23 16.76 23 13.4v-2.8c0-3.36 0-5.04-.654-6.324a6 6 0 0 0-2.622-2.622C18.44 1 16.76 1 13.4 1h-2.8c-3.36 0-5.04 0-6.324.654a6 6 0 0 0-2.622 2.622ZM13.4 3h-2.8c-1.713 0-2.878.002-3.778.075-.877.072-1.325.202-1.638.361a4 4 0 0 0-1.748 1.748c-.16.313-.29.761-.36 1.638C3.001 7.722 3 8.887 3 10.6v2.8c0 1.713.002 2.878.075 3.778.072.877.202 1.325.361 1.638a4 4 0 0 0 1.748 1.748c.313.16.761.29 1.638.36.9.074 2.065.076 3.778.076h2.8c1.713 0 2.878-.002 3.778-.075.877-.072 1.325-.202 1.638-.361a4 4 0 0 0 1.748-1.748c.16-.313.29-.761.36-1.638.074-.9.076-2.065.076-3.778v-2.8c0-1.713-.002-2.878-.075-3.778-.072-.877-.202-1.325-.361-1.638a4 4 0 0 0-1.748-1.748c-.313-.16-.761-.29-1.638-.36C16.278 3.001 15.113 3 13.4 3Z" fill="#0F0F0F"/></svg><svg viewBox="0 0 24 24" fill="none" id="phone-call" xmlns="http://www.w3.org/2000/svg"><path d="M14.05 6A5 5 0 0 1 18 9.95M14.05 2A9 9 0 0 1 22 9.94M18.5 21C9.94 21 3 14.06 3 5.5c0-.386.014-.77.042-1.148.032-.435.048-.653.162-.851a1.06 1.06 0 0 1 .432-.402C3.842 3 4.082 3 4.562 3h2.817c.404 0 .606 0 .779.066a1 1 0 0 1 .396.278c.122.14.191.33.329.71l1.166 3.206c.16.442.24.662.227.872a1 1 0 0 1-.182.513c-.121.171-.323.292-.725.534L8 10a12.1 12.1 0 0 0 6 6l.821-1.369c.242-.402.363-.604.534-.725a1 1 0 0 1 .513-.182c.21-.014.43.066.872.227l3.207 1.166c.38.138.569.207.709.329a.999.999 0 0 1 .277.396c.067.173.067.375.067.779v2.817c0 .48 0 .72-.1.926a1.06 1.06 0 0 1-.401.432c-.198.114-.416.13-.85.162-.38.028-.763.042-1.149.042Z" stroke="#000" stroke-width="2" stroke-linecap="round" stroke-linejoin="round"/></svg><svg fill="none" viewBox="0 0 37 12" id="slider-btn-arrow" xmlns="http://www.w3.org/2000/svg"><path d="M1 5.25a.75.75 0 0 0 0 1.5v-1.5Zm35.53 1.28a.75.75 0 0 0 0-1.06L31.757.697a.75.75 0 0 0-1.06 1.06L34.939 6l-4.242 4.243a.75.75 0 0 0 1.06 1.06L36.53 6.53ZM1 6.75h35v-1.5H1v1.5Z" fill="url(#da)"/><defs><linearGradient id="da" x1="36" y1="6.654" x2="29.207" y2="18.276" gradientUnits="userSpaceOnUse"><stop stop-color="#237249"/><stop offset="1" stop-color="#35C66B"/></linearGradient></defs></svg><svg fill="none" viewBox="0 0 134 134" id="star-label-13" xmlns="http://www.w3.org/2000/svg"><path d="M6.74 49.41c-4.586-5.803-.945-14.38 6.414-15.112 5.459-.543 9.282-5.644 8.27-11.036-1.364-7.269 5.846-13.172 12.702-10.4 5.086 2.056 10.842-.684 12.451-5.928 2.17-7.07 11.298-8.946 16.08-3.306 3.549 4.185 9.918 4.433 13.78.537 5.208-5.251 14.162-2.67 15.775 4.546 1.197 5.354 6.722 8.534 11.953 6.88 7.051-2.23 13.78 4.216 11.855 11.356-1.429 5.296 1.986 10.68 7.386 11.646 7.28 1.302 10.242 10.137 5.219 15.564-3.726 4.027-3.204 10.38 1.128 13.745 5.841 4.536 4.359 13.736-2.611 16.207-5.171 1.834-7.661 7.702-5.389 12.694 3.064 6.731-2.524 14.188-9.844 13.138-5.43-.78-10.363 3.259-10.671 8.736-.415 7.384-8.828 11.39-14.822 7.057-4.446-3.213-10.69-1.93-13.508 2.777-3.799 6.345-13.11 5.982-16.404-.639-2.443-4.912-8.569-6.677-13.251-3.819-6.313 3.853-14.39-.795-14.229-8.189.12-5.485-4.484-9.894-9.958-9.54-7.38.478-12.371-7.391-8.793-13.863 2.655-4.801.628-10.845-4.384-13.075-6.757-3.007-7.52-12.294-1.343-16.362 4.581-3.017 5.595-9.31 2.194-13.615Z" fill="url(#ea)"/><defs><linearGradient id="ea" x1="119.132" y1="4.419" x2="78.584" y2="114.618" gradientUnits="userSpaceOnUse"><stop stop-color="#237249"/><stop offset="1" stop-color="#35C66B"/></linearGradient></defs></svg><svg fill="none" viewBox="0 0 168 168" id="star-label-hero" xmlns="http://www.w3.org/2000/svg"><path d="M128.37 18.006c6.934-1.976 13.671 3.677 12.928 10.848-.574 5.55 3.423 10.53 8.966 11.17 7.162.828 11.223 8.629 7.793 14.97-2.655 4.908-.868 11.039 4.008 13.752 6.3 3.505 7.067 12.266 1.471 16.812-4.331 3.518-5.026 9.866-1.56 14.239 4.48 5.649 1.835 14.036-5.075 16.095-5.347 1.593-8.419 7.192-6.889 12.558 1.976 6.934-3.677 13.67-10.848 12.928-5.55-.574-10.53 3.422-11.171 8.966-.827 7.162-8.628 11.222-14.969 7.792-4.908-2.655-11.039-.868-13.752 4.008-3.505 6.301-12.266 7.067-16.812 1.471-3.519-4.331-9.866-5.026-14.239-1.559-5.65 4.479-14.036 1.835-16.095-5.075-1.593-5.348-7.192-8.419-12.558-6.889-6.934 1.976-13.67-3.677-12.928-10.848.574-5.551-3.422-10.531-8.966-11.171-7.162-.828-11.223-8.628-7.792-14.97 2.655-4.908.868-11.038-4.009-13.751-6.3-3.506-7.066-12.266-1.47-16.813 4.33-3.518 5.026-9.866 1.559-14.238-4.48-5.65-1.835-14.037 5.075-16.095 5.348-1.594 8.419-7.192 6.89-12.558-1.977-6.934 3.676-13.67 10.847-12.929 5.55.575 10.53-3.422 11.171-8.965.828-7.162 8.628-11.223 14.97-7.793 4.908 2.655 11.038.868 13.751-4.008 3.506-6.3 12.266-7.067 16.812-1.47 3.519 4.33 9.867 5.025 14.239 1.559 5.65-4.48 14.037-1.835 16.095 5.075 1.594 5.347 7.192 8.419 12.558 6.889Z" fill="url(#fa)"/><defs><linearGradient id="fa" x1="135.996" y1="164.55" x2="24.908" y2="80.226" gradientUnits="userSpaceOnUse"><stop stop-color="#237249"/><stop offset="1" stop-color="#35C66B"/></linearGradient></defs></svg></svg>