<svg width="134" height="134" viewBox="0 0 134 134" fill="none" xmlns="http://www.w3.org/2000/svg">
<path d="M6.73955 49.4094C2.15386 43.6074 5.79493 35.0296 13.154 34.2978C18.6129 33.755 22.4357 28.6536 21.4238 23.262C20.0597 15.9935 27.27 10.0903 34.1262 12.8623C39.2121 14.9185 44.9677 12.178 46.5773 6.93366C48.7473 -0.136202 57.8751 -2.01242 62.6577 3.62833C66.2055 7.81256 72.5754 8.0607 76.4378 4.16512C81.6448 -1.08648 90.5989 1.49409 92.2124 8.71133C93.4092 14.065 98.9342 17.245 104.165 15.5906C111.216 13.3603 117.945 19.8065 116.02 26.9468C114.591 32.2435 118.006 37.6268 123.406 38.5926C130.686 39.8946 133.648 48.7296 128.625 54.1573C124.899 58.1835 125.421 64.5369 129.753 67.9016C135.594 72.4376 134.112 81.6375 127.142 84.1092C121.971 85.9426 119.481 91.8106 121.753 96.8034C124.817 103.534 119.229 110.991 111.909 109.941C106.479 109.161 101.546 113.2 101.238 118.677C100.823 126.061 92.4098 130.067 86.4162 125.734C81.9703 122.521 75.726 123.804 72.9081 128.511C69.1092 134.856 59.7977 134.493 56.5039 127.872C54.0607 122.96 47.9352 121.195 43.2527 124.053C36.9403 127.906 28.8639 123.258 29.0245 115.864C29.1437 110.379 24.5403 105.97 19.0659 106.324C11.686 106.802 6.69497 98.9329 10.2732 92.4608C12.9275 87.6599 10.9007 81.6159 5.88862 79.3859C-0.86813 76.3795 -1.63043 67.0922 4.54567 63.0243C9.12702 60.0068 10.1412 53.7132 6.73955 49.4094Z" fill="url(#paint0_linear_14_28)"/>
<defs>
<linearGradient id="paint0_linear_14_28" x1="119.132" y1="4.41892" x2="78.5841" y2="114.618" gradientUnits="userSpaceOnUse">
<stop stop-color="#237249"/>
<stop offset="1" stop-color="#35C66B"/>
</linearGradient>
</defs>
</svg>
