<?xml version="1.0" encoding="UTF-8" standalone="no"?>
<svg
   width="84"
   height="84"
   viewBox="0 0 84 84"
   fill="none"
   version="1.1"
   id="svg5"
   sodipodi:docname="scroll-up-btn.svg"
   inkscape:version="1.4 (86a8ad7, 2024-10-11)"
   xmlns:inkscape="http://www.inkscape.org/namespaces/inkscape"
   xmlns:sodipodi="http://sodipodi.sourceforge.net/DTD/sodipodi-0.dtd"
   xmlns="http://www.w3.org/2000/svg"
   xmlns:svg="http://www.w3.org/2000/svg">
  <sodipodi:namedview
     id="namedview5"
     pagecolor="#ffffff"
     bordercolor="#000000"
     borderopacity="0.25"
     inkscape:showpageshadow="2"
     inkscape:pageopacity="0.0"
     inkscape:pagecheckerboard="0"
     inkscape:deskcolor="#d1d1d1"
     inkscape:zoom="10.535714"
     inkscape:cx="42"
     inkscape:cy="42"
     inkscape:window-width="1920"
     inkscape:window-height="1129"
     inkscape:window-x="-8"
     inkscape:window-y="-8"
     inkscape:window-maximized="1"
     inkscape:current-layer="svg5" />
  <path
     d="M42 83.25C48.062 83.25 52.5748 83.2497 56.1783 83.029C59.7759 82.8088 62.418 82.3709 64.7419 81.5171C72.5244 78.658 78.658 72.5244 81.5171 64.7419C82.3709 62.418 82.8088 59.7759 83.029 56.1783C83.2497 52.5748 83.25 48.062 83.25 42C83.25 35.938 83.2497 31.4252 83.029 27.8217C82.8088 24.2241 82.3709 21.582 81.5171 19.2581C78.658 11.4756 72.5244 5.34202 64.7419 2.48288C62.418 1.62912 59.7759 1.19123 56.1783 0.970959C52.5748 0.750327 48.062 0.75 42 0.75C35.938 0.75 31.4252 0.750327 27.8217 0.970959C24.2241 1.19123 21.582 1.62912 19.2581 2.48288C11.4756 5.34202 5.34202 11.4756 2.48288 19.2581C1.62912 21.582 1.19123 24.2241 0.970955 27.8217C0.750328 31.4252 0.75 35.938 0.75 42C0.75 48.062 0.750328 52.5748 0.970955 56.1783C1.19123 59.7759 1.62912 62.418 2.48288 64.7419C5.34202 72.5244 11.4756 78.658 19.2581 81.5171C21.582 82.3709 24.2241 82.8088 27.8217 83.029C31.4252 83.2497 35.938 83.25 42 83.25Z"
     stroke="url(#paint0_linear_24_91)"
     stroke-width="1.5"
     id="path1" />
  <path
     d="m 40.749988,59.499988 c 0,0.4142 0.3358,0.75 0.75,0.75 0.4142,0 0.75,-0.3358 0.75,-0.75 z m 1.280299,-35.5303 c -0.292899,-0.2929 -0.767699,-0.2929 -1.060599,0 l -4.773,4.7729 c -0.292901,0.2929 -0.292901,0.767799 0,1.0607 0.2929,0.2929 0.7678,0.2929 1.060699,0 l 4.242601,-4.242601 4.2426,4.242601 c 0.2929,0.2929 0.767799,0.2929 1.0607,0 0.2929,-0.292901 0.2929,-0.7678 0,-1.0607 z m 0.219701,35.5303 v -35 h -1.5 v 35 z"
     fill="url(#paint1_linear_24_91)"
     id="path2"
     style="fill:url(#paint1_linear_24_91)" />
  <defs
     id="defs5">
    <linearGradient
       id="paint0_linear_24_91"
       x1="-3.73048e-06"
       y1="54.9419"
       x2="63.8716"
       y2="58.0642"
       gradientUnits="userSpaceOnUse">
      <stop
         stop-color="#237249"
         id="stop2" />
      <stop
         offset="1"
         stop-color="#35C66B"
         id="stop3" />
    </linearGradient>
    <linearGradient
       id="paint1_linear_24_91"
       x1="59"
       y1="42.6541"
       x2="52.2075"
       y2="54.2758"
       gradientUnits="userSpaceOnUse"
       gradientTransform="rotate(-90,41.499988,42)">
      <stop
         stop-color="#237249"
         id="stop4" />
      <stop
         offset="1"
         stop-color="#35C66B"
         id="stop5" />
    </linearGradient>
  </defs>
</svg>
