<svg width="168" height="168" viewBox="0 0 168 168" fill="none" xmlns="http://www.w3.org/2000/svg">
<path d="M128.37 18.006C135.304 16.0297 142.041 21.6825 141.298 28.854V28.854C140.724 34.4044 144.721 39.3844 150.264 40.0248V40.0248C157.426 40.8523 161.487 48.6528 158.057 54.9944V54.9944C155.402 59.9024 157.189 66.0329 162.065 68.7459V68.7459C168.365 72.2512 169.132 81.0119 163.536 85.558V85.558C159.205 89.0765 158.51 95.4242 161.976 99.7967V99.7967C166.456 105.446 163.811 113.833 156.901 115.892V115.892C151.554 117.485 148.482 123.084 150.012 128.45V128.45C151.988 135.384 146.335 142.12 139.164 141.378V141.378C133.614 140.804 128.634 144.8 127.993 150.344V150.344C127.166 157.506 119.365 161.566 113.024 158.136V158.136C108.116 155.481 101.985 157.268 99.272 162.144V162.144C95.7667 168.445 87.006 169.211 82.4599 163.615V163.615C78.9414 159.284 72.5938 158.589 68.2213 162.056V162.056C62.5717 166.535 54.1846 163.891 52.126 156.981V156.981C50.5327 151.633 44.9343 148.562 39.5679 150.092V150.092C32.6343 152.068 25.8976 146.415 26.6399 139.244V139.244C27.2144 133.693 23.2175 128.713 17.6743 128.073V128.073C10.5121 127.245 6.45146 119.445 9.88167 113.103V113.103C12.5365 108.195 10.7496 102.065 5.87347 99.3517V99.3517C-0.426843 95.8464 -1.1933 87.0857 4.4026 82.5395V82.5395C8.73358 79.021 9.42876 72.6734 5.96198 68.3009V68.3009C1.48268 62.6514 4.12714 54.2642 11.0368 52.2056V52.2056C16.3846 50.6123 19.456 45.0139 17.9264 39.6476V39.6476C15.95 32.714 21.6028 25.9772 28.7743 26.7195V26.7195C34.3247 27.2941 39.3047 23.2972 39.9452 17.754V17.754C40.7727 10.5918 48.5732 6.53111 54.9147 9.96132V9.96132C59.8228 12.6162 65.9533 10.8293 68.6662 5.95312V5.95312C72.1716 -0.347192 80.9323 -1.11365 85.4784 4.48225V4.48225C88.9969 8.81323 95.3445 9.50841 99.717 6.04163V6.04163C105.367 1.56234 113.754 4.20679 115.812 11.1165V11.1165C117.406 16.4642 123.004 19.5356 128.37 18.006V18.006Z" fill="url(#paint0_linear_8_11)"/>
<defs>
<linearGradient id="paint0_linear_8_11" x1="135.996" y1="164.55" x2="24.9079" y2="80.2258" gradientUnits="userSpaceOnUse">
<stop stop-color="#237249"/>
<stop offset="1" stop-color="#35C66B"/>
</linearGradient>
</defs>
</svg>
