<svg width="84" height="84" viewBox="0 0 84 84" fill="none" xmlns="http://www.w3.org/2000/svg">
<path d="M42 83.25C48.062 83.25 52.5748 83.2497 56.1783 83.029C59.7759 82.8088 62.418 82.3709 64.7419 81.5171C72.5244 78.658 78.658 72.5244 81.5171 64.7419C82.3709 62.418 82.8088 59.7759 83.029 56.1783C83.2497 52.5748 83.25 48.062 83.25 42C83.25 35.938 83.2497 31.4252 83.029 27.8217C82.8088 24.2241 82.3709 21.582 81.5171 19.2581C78.658 11.4756 72.5244 5.34202 64.7419 2.48288C62.418 1.62912 59.7759 1.19123 56.1783 0.970959C52.5748 0.750327 48.062 0.75 42 0.75C35.938 0.75 31.4252 0.750327 27.8217 0.970959C24.2241 1.19123 21.582 1.62912 19.2581 2.48288C11.4756 5.34202 5.34202 11.4756 2.48288 19.2581C1.62912 21.582 1.19123 24.2241 0.970955 27.8217C0.750328 31.4252 0.75 35.938 0.75 42C0.75 48.062 0.750328 52.5748 0.970955 56.1783C1.19123 59.7759 1.62912 62.418 2.48288 64.7419C5.34202 72.5244 11.4756 78.658 19.2581 81.5171C21.582 82.3709 24.2241 82.8088 27.8217 83.029C31.4252 83.2497 35.938 83.25 42 83.25Z" stroke="url(#paint0_linear_24_91)" stroke-width="1.5"/>
<path d="M24 41.25C23.5858 41.25 23.25 41.5858 23.25 42C23.25 42.4142 23.5858 42.75 24 42.75V41.25ZM59.5303 42.5303C59.8232 42.2374 59.8232 41.7626 59.5303 41.4697L54.7574 36.6967C54.4645 36.4038 53.9896 36.4038 53.6967 36.6967C53.4038 36.9896 53.4038 37.4645 53.6967 37.7574L57.9393 42L53.6967 46.2426C53.4038 46.5355 53.4038 47.0104 53.6967 47.3033C53.9896 47.5962 54.4645 47.5962 54.7574 47.3033L59.5303 42.5303ZM24 42.75H59V41.25H24V42.75Z" fill="url(#paint1_linear_24_91)"/>
<defs>
<linearGradient id="paint0_linear_24_91" x1="-3.73048e-06" y1="54.9419" x2="63.8716" y2="58.0642" gradientUnits="userSpaceOnUse">
<stop stop-color="#237249"/>
<stop offset="1" stop-color="#35C66B"/>
</linearGradient>
<linearGradient id="paint1_linear_24_91" x1="59" y1="42.6541" x2="52.2075" y2="54.2758" gradientUnits="userSpaceOnUse">
<stop stop-color="#237249"/>
<stop offset="1" stop-color="#35C66B"/>
</linearGradient>
</defs>
</svg>
