<?xml version="1.0" encoding="UTF-8"?>
<svg id="_Слой_1" xmlns="http://www.w3.org/2000/svg" version="1.1" viewBox="0 0 1190.9 395.4">
  <!-- Generator: Adobe Illustrator 29.3.0, SVG Export Plug-In . SVG Version: 2.1.0 Build 146)  -->
  <defs>
    <style>
      .st0 {
        fill: none;
        stroke: #d9d9d9;
        stroke-linejoin: round;
        stroke-width: 1.4px;
      }
    </style>
  </defs>
  <path class="st0" d="M1190.9,324.7l-181.3-25.2c-48.6-6.8-85.9-46.6-89.4-95.6l-1.1-15.3c-3.8-52.6-46.2-94-98.9-96.5l-28.7-1.3c-24.3-1.1-47.5-10.8-65.5-27.3l-33.6-30.8c-32.9-30.2-81.5-36.1-120.7-14.4l-169,93.4c-37.1,20.5-83,16.4-116-10.4l-38.3-31.2c-33.3-27.1-79.8-31-117.1-9.7l-86.6,49.4"/>
  <path class="st0" d="M1173.6,358.7l-181.3-25.2c-48.6-6.8-85.9-46.6-89.4-95.6l-1.1-15.3c-3.8-52.6-46.2-94-98.9-96.5l-28.7-1.3c-24.3-1.1-47.5-10.8-65.5-27.3l-33.6-30.8c-32.9-30.2-81.5-36.1-120.7-14.4l-169,93.4c-37.1,20.5-83,16.4-116-10.4l-38.3-31.2c-33.3-27.1-79.8-31-117.1-9.7l-86.6,49.4"/>
  <path class="st0" d="M1156.4,392.7l-181.3-25.2c-48.6-6.8-85.9-46.6-89.4-95.6l-1.1-15.3c-3.8-52.6-46.2-94-98.9-96.5l-28.7-1.3c-24.3-1.1-47.5-10.8-65.5-27.3l-33.6-30.8c-32.9-30.2-81.5-36.1-120.7-14.4l-169.1,93.4c-37.1,20.5-83,16.4-116-10.4l-38.3-31.2c-33.3-27.1-79.8-31-117.1-9.7L10.1,177.9"/>
</svg>