<?xml version="1.0" encoding="UTF-8"?>
<svg id="_Слой_1" xmlns="http://www.w3.org/2000/svg" version="1.1" viewBox="0 0 1179.4 435.3">
  <!-- Generator: Adobe Illustrator 29.3.0, SVG Export Plug-In . SVG Version: 2.1.0 Build 146)  -->
  <defs>
    <style>
      .st0 {
        fill: none;
        stroke: #d9d9d9;
        stroke-linejoin: round;
        stroke-width: 1.4px;
      }
    </style>
  </defs>
  <path class="st0" d="M13.9,369.6l178.8-39.5c47.9-10.6,82-53.3,81.6-102.4v-15.3c-.5-52.7,38.5-97.4,90.8-104l28.5-3.6c24.2-3.1,46.5-14.5,63.1-32.4l31-33.4c30.4-32.8,78.4-42.4,119.1-23.9l175.9,79.8c38.7,17.5,84.1,9.8,114.8-19.5l35.7-34.1c31.1-29.7,77.1-37.2,116-18.9l90.3,42.4"/>
  <path class="st0" d="M33.9,402.1l178.8-39.5c47.9-10.6,82-53.3,81.6-102.4v-15.3c-.5-52.7,38.5-97.4,90.8-104l28.5-3.6c24.2-3.1,46.5-14.5,63.1-32.4l31-33.4c30.4-32.8,78.4-42.4,119.1-23.9l175.9,79.8c38.7,17.5,84.1,9.8,114.8-19.5l35.7-34.1c31.1-29.7,77.1-37.2,116-18.9l90.3,42.4"/>
  <path class="st0" d="M53.8,434.6l178.8-39.5c47.9-10.6,82-53.3,81.6-102.4v-15.3c-.5-52.7,38.5-97.4,90.8-104l28.5-3.6c24.2-3.1,46.5-14.5,63.1-32.4l31-33.4c30.4-32.8,78.4-42.4,119.1-23.9l175.9,79.8c38.7,17.5,84.1,9.8,114.8-19.5l35.7-34.1c31.1-29.7,77.1-37.2,116-18.9l90.3,42.4"/>
</svg>