<svg width="92" height="92" viewBox="0 0 92 92" fill="none" xmlns="http://www.w3.org/2000/svg">
<rect width="92" height="92" fill="#121517"/>
<path d="M45.8936 81.3244C40.4699 81.3244 35.2353 80.6622 30.19 79.3378C25.2077 77.9503 21.1399 76.1845 17.9866 74.0402L24.1356 60.2286C27.0997 62.1206 30.5053 63.6973 34.3524 64.9586C38.2625 66.1569 42.1411 66.756 45.9882 66.756C48.5739 66.756 50.6551 66.5353 52.2318 66.0938C53.8085 65.5893 54.9437 64.9586 55.6374 64.2018C56.3942 63.3819 56.7726 62.4359 56.7726 61.3638C56.7726 59.8502 56.0789 58.6519 54.6914 57.769C53.3039 56.8861 51.5065 56.1608 49.2992 55.5932C47.0919 55.0256 44.6323 54.458 41.9204 53.8904C39.2716 53.3228 36.5913 52.5975 33.8794 51.7146C31.2306 50.8317 28.8025 49.6965 26.5952 48.309C24.3879 46.8585 22.5905 44.998 21.203 42.7276C19.8155 40.3941 19.1218 37.4615 19.1218 33.9298C19.1218 29.9566 20.1939 26.3618 22.3382 23.1454C24.5455 19.929 27.825 17.3433 32.1766 15.3882C36.5282 13.4331 41.9519 12.4556 48.4478 12.4556C52.7994 12.4556 57.0564 12.9601 61.2188 13.9692C65.4443 14.9152 69.1967 16.3342 72.4762 18.2262L66.7056 32.1324C63.5523 30.4296 60.4305 29.1683 57.3402 28.3484C54.2499 27.4655 51.2543 27.024 48.3532 27.024C45.7675 27.024 43.6863 27.3078 42.1096 27.8754C40.5329 28.3799 39.3977 29.0737 38.704 29.9566C38.0103 30.8395 37.6634 31.8486 37.6634 32.9838C37.6634 34.4343 38.3256 35.6011 39.65 36.484C41.0375 37.3039 42.8349 37.9976 45.0422 38.5652C47.3126 39.0697 49.7722 39.6058 52.421 40.1734C55.1329 40.741 57.8132 41.4663 60.462 42.3492C63.1739 43.1691 65.6335 44.3043 67.8408 45.7548C70.0481 47.1423 71.814 49.0027 73.1384 51.3362C74.5259 53.6066 75.2196 56.4761 75.2196 59.9448C75.2196 63.7919 74.1159 67.3551 71.9086 70.6346C69.7643 73.851 66.5164 76.4367 62.1648 78.3918C57.8763 80.3469 52.4525 81.3244 45.8936 81.3244Z" fill="url(#paint0_linear_14892_13)"/>
<defs>
<linearGradient id="paint0_linear_14892_13" x1="75" y1="30.4186" x2="20.1083" y2="35.0607" gradientUnits="userSpaceOnUse">
<stop stop-color="#237249"/>
<stop offset="1" stop-color="#35C66B"/>
</linearGradient>
</defs>
</svg>
